<svg width="273" height="86" viewBox="0 0 273 86" fill="none" xmlns="http://www.w3.org/2000/svg">
<path d="M87.7216 72.0881V36.2414H96.4272V72.0881H87.7216ZM91.7672 58.364V51.0922H110.305V58.364H91.7672ZM91.7672 43.9229V36.2414H112.405V43.9229H91.7672ZM127.999 72.6002C125.165 72.6002 122.639 71.9857 120.42 70.7567C118.235 69.5277 116.494 67.8548 115.196 65.7381C113.933 63.6215 113.302 61.1976 113.302 58.4664C113.302 55.7352 113.933 53.3113 115.196 51.1946C116.494 49.078 118.235 47.4051 120.42 46.1761C122.639 44.9471 125.165 44.3325 127.999 44.3325C130.832 44.3325 133.342 44.9471 135.527 46.1761C137.746 47.4051 139.487 49.078 140.75 51.1946C142.013 53.3113 142.645 55.7352 142.645 58.4664C142.645 61.1976 142.013 63.6215 140.75 65.7381C139.487 67.8548 137.746 69.5277 135.527 70.7567C133.342 71.9857 130.832 72.6002 127.999 72.6002ZM127.999 65.5333C129.228 65.5333 130.32 65.2261 131.276 64.6115C132.232 63.997 132.983 63.1606 133.529 62.1023C134.076 61.0439 134.332 59.832 134.298 58.4664C134.332 57.1008 134.076 55.8888 133.529 54.8305C132.983 53.738 132.232 52.8845 131.276 52.27C130.32 51.6555 129.228 51.3483 127.999 51.3483C126.77 51.3483 125.66 51.6555 124.67 52.27C123.714 52.8845 122.963 53.738 122.417 54.8305C121.871 55.8888 121.615 57.1008 121.649 58.4664C121.615 59.832 121.871 61.0439 122.417 62.1023C122.963 63.1606 123.714 63.997 124.67 64.6115C125.66 65.2261 126.77 65.5333 127.999 65.5333ZM158.244 72.6002C155.411 72.6002 152.884 71.9857 150.665 70.7567C148.48 69.5277 146.739 67.8548 145.442 65.7381C144.179 63.6215 143.547 61.1976 143.547 58.4664C143.547 55.7352 144.179 53.3113 145.442 51.1946C146.739 49.078 148.48 47.4051 150.665 46.1761C152.884 44.9471 155.411 44.3325 158.244 44.3325C161.078 44.3325 163.587 44.9471 165.772 46.1761C167.991 47.4051 169.732 49.078 170.996 51.1946C172.259 53.3113 172.89 55.7352 172.89 58.4664C172.89 61.1976 172.259 63.6215 170.996 65.7381C169.732 67.8548 167.991 69.5277 165.772 70.7567C163.587 71.9857 161.078 72.6002 158.244 72.6002ZM158.244 65.5333C159.473 65.5333 160.566 65.2261 161.522 64.6115C162.478 63.997 163.229 63.1606 163.775 62.1023C164.321 61.0439 164.577 59.832 164.543 58.4664C164.577 57.1008 164.321 55.8888 163.775 54.8305C163.229 53.738 162.478 52.8845 161.522 52.27C160.566 51.6555 159.473 51.3483 158.244 51.3483C157.015 51.3483 155.906 51.6555 154.916 52.27C153.96 52.8845 153.209 53.738 152.663 54.8305C152.116 55.8888 151.86 57.1008 151.894 58.4664C151.86 59.832 152.116 61.0439 152.663 62.1023C153.209 63.1606 153.96 63.997 154.916 64.6115C155.906 65.2261 157.015 65.5333 158.244 65.5333ZM185.981 72.6514C183.625 72.6514 181.526 72.054 179.682 70.8591C177.873 69.6301 176.439 67.9572 175.38 65.8406C174.322 63.6898 173.793 61.2488 173.793 58.5176C173.793 55.7864 174.322 53.3625 175.38 51.2458C176.439 49.095 177.89 47.4051 179.733 46.1761C181.577 44.9471 183.693 44.3325 186.083 44.3325C187.312 44.3325 188.49 44.5203 189.617 44.8958C190.743 45.2714 191.767 45.7835 192.689 46.4321C193.611 47.0808 194.362 47.8319 194.942 48.6854C195.523 49.5047 195.864 50.3582 195.967 51.2458L194.021 51.7067V34.193H202.265V72.0881H194.635L194.174 65.8918L195.813 66.1478C195.711 67.0013 195.369 67.8207 194.789 68.6059C194.243 69.3911 193.526 70.091 192.638 70.7055C191.75 71.2859 190.726 71.7467 189.565 72.0881C188.439 72.4637 187.244 72.6514 185.981 72.6514ZM188.08 65.8406C189.344 65.8406 190.436 65.5333 191.358 64.9188C192.28 64.3043 192.979 63.4508 193.457 62.3583C193.969 61.2658 194.226 59.9856 194.226 58.5176C194.226 57.0154 193.969 55.7181 193.457 54.6257C192.979 53.5332 192.28 52.6797 191.358 52.0652C190.436 51.4507 189.344 51.1434 188.08 51.1434C186.817 51.1434 185.725 51.4507 184.803 52.0652C183.915 52.6797 183.215 53.5332 182.703 54.6257C182.191 55.7181 181.935 57.0154 181.935 58.5176C181.935 59.9856 182.191 61.2658 182.703 62.3583C183.215 63.4508 183.915 64.3043 184.803 64.9188C185.725 65.5333 186.817 65.8406 188.08 65.8406ZM219.589 72.6002C216.585 72.6002 213.973 72.0028 211.754 70.8079C209.535 69.5789 207.811 67.9231 206.582 65.8406C205.353 63.7239 204.739 61.3171 204.739 58.62C204.739 56.5375 205.08 54.6257 205.763 52.8845C206.446 51.1434 207.402 49.6413 208.631 48.3781C209.86 47.0808 211.311 46.0907 212.983 45.4079C214.69 44.691 216.551 44.3325 218.565 44.3325C220.477 44.3325 222.218 44.6739 223.789 45.3567C225.393 46.0395 226.776 46.9954 227.937 48.2245C229.097 49.4535 229.985 50.9044 230.6 52.5773C231.214 54.2501 231.487 56.0766 231.419 58.0567L231.368 60.2587H209.706L208.528 55.6499H224.71L223.84 56.6228V55.5986C223.772 54.7452 223.498 53.9941 223.021 53.3454C222.577 52.6626 221.979 52.1335 221.228 51.7579C220.477 51.3824 219.624 51.1946 218.668 51.1946C217.336 51.1946 216.193 51.4677 215.237 52.014C214.315 52.5261 213.615 53.2942 213.137 54.3184C212.659 55.3085 212.42 56.5375 212.42 58.0055C212.42 59.5076 212.727 60.822 213.342 61.9486C213.991 63.0411 214.912 63.8946 216.107 64.5091C217.336 65.1236 218.787 65.4309 220.46 65.4309C221.621 65.4309 222.645 65.2602 223.533 64.9188C224.454 64.5774 225.444 63.997 226.503 63.1777L230.343 68.6059C229.285 69.5277 228.159 70.2787 226.964 70.8591C225.769 71.4395 224.54 71.8662 223.277 72.1393C222.048 72.4466 220.819 72.6002 219.589 72.6002ZM243.245 72.6002C240.582 72.6002 238.227 72.1735 236.178 71.32C234.164 70.4665 232.559 69.3228 231.364 67.8889L236.332 63.5873C237.39 64.6457 238.585 65.4309 239.916 65.943C241.248 66.4209 242.511 66.6599 243.706 66.6599C244.184 66.6599 244.611 66.6087 244.986 66.5063C245.362 66.4039 245.669 66.2673 245.908 66.0966C246.181 65.8918 246.386 65.6699 246.523 65.4309C246.659 65.1578 246.727 64.8505 246.727 64.5091C246.727 63.8263 246.42 63.2972 245.806 62.9216C245.498 62.7509 244.986 62.5461 244.269 62.3071C243.552 62.0681 242.631 61.795 241.504 61.4878C239.899 61.0781 238.5 60.6001 237.305 60.0539C236.144 59.4735 235.188 58.8078 234.437 58.0567C233.754 57.3398 233.225 56.5546 232.85 55.7011C232.474 54.8134 232.286 53.8234 232.286 52.7309C232.286 51.4677 232.576 50.3241 233.157 49.2999C233.771 48.2757 234.574 47.388 235.564 46.637C236.588 45.8859 237.749 45.3226 239.046 44.9471C240.377 44.5374 241.743 44.3325 243.143 44.3325C244.645 44.3325 246.079 44.5032 247.444 44.8446C248.81 45.186 250.073 45.664 251.234 46.2785C252.429 46.893 253.487 47.627 254.409 48.4805L250.107 53.2942C249.493 52.7138 248.793 52.2017 248.008 51.7579C247.257 51.28 246.471 50.9044 245.652 50.6313C244.833 50.3582 244.082 50.2216 243.399 50.2216C242.887 50.2216 242.426 50.2729 242.016 50.3753C241.641 50.4436 241.316 50.5801 241.043 50.7849C240.77 50.9556 240.565 51.1776 240.429 51.4507C240.292 51.6897 240.224 51.9798 240.224 52.3212C240.224 52.6626 240.309 52.987 240.48 53.2942C240.685 53.6015 240.958 53.8575 241.299 54.0624C241.641 54.2672 242.187 54.5062 242.938 54.7793C243.689 55.0183 244.713 55.3255 246.01 55.7011C247.615 56.1449 248.998 56.6399 250.158 57.1861C251.319 57.7324 252.241 58.381 252.924 59.1321C253.47 59.7125 253.88 60.3953 254.153 61.1805C254.426 61.9316 254.562 62.7509 254.562 63.6386C254.562 65.3797 254.067 66.933 253.077 68.2986C252.121 69.6301 250.79 70.6884 249.083 71.4736C247.376 72.2247 245.43 72.6002 243.245 72.6002ZM259.126 72.0881V38.0338H267.32V72.0881H259.126ZM254.312 52.0652V44.8958H272.594V52.0652H254.312Z" fill="#25292D"/>
<path d="M62.9528 0.0967535C58.2782 2.70177 52.9169 3.02106 47.6643 3.63937C45.0998 3.94346 42.5599 4.31845 40.1435 5.06858C39.6197 5.23071 39.096 5.41322 38.5821 5.61594C37.0552 6.21398 35.5827 6.99954 34.1942 8.04864C32.8896 9.03181 31.8223 10.1975 30.923 11.4798C29.49 13.5272 28.4919 15.8839 27.6716 18.3319C26.1744 22.7766 25.4875 27.5001 25.6209 32.1983C25.6753 34.1039 25.7049 36.0855 26.1645 37.9455C26.2683 38.356 26.3671 38.878 26.6784 39.1821C27.0836 39.5825 27.81 39.1719 27.6469 38.5891C26.4709 34.4789 27.2022 29.6743 28.8279 25.7465C30.6957 21.2308 34.3029 18.5447 38.7105 16.9077C39.8816 16.4719 41.0775 16.0918 42.293 15.7319C42.3177 15.7218 42.3424 15.7218 42.3671 15.7218C42.6093 15.7218 42.713 16.0867 42.461 16.2033C41.028 16.8672 39.6049 17.5362 38.2509 18.261C31.6197 21.8087 28.7241 30.0697 31.2095 30.0697C31.4122 30.0697 31.6493 30.0139 31.9211 29.8974C35.7556 28.2705 40.3115 28.2554 44.5264 27.4546C46.0088 27.1758 47.4517 26.7957 48.8057 26.218C54.1819 23.917 58.0262 19.4165 60.314 14.0038C62.0188 9.96449 62.6809 5.19539 63.9706 0.99893C64.1386 0.461709 63.768 0.000560719 63.3134 0.000560719C63.1999 -0.00460877 63.0763 0.0258504 62.9528 0.0967535Z" fill="url(#paint0_linear_0_1)"/>
<circle cx="29.8723" cy="55.2282" r="29.8723" fill="url(#paint1_linear_0_1)"/>
<path d="M20.6331 85V40.1916H31.5151V85H20.6331ZM25.69 67.8448V58.7551H48.8623V67.8448H25.69ZM25.69 49.7934V40.1916H51.4868V49.7934H25.69Z" fill="white"/>
<defs>
<linearGradient id="paint0_linear_0_1" x1="64.0118" y1="39.3417" x2="22.023" y2="35.0511" gradientUnits="userSpaceOnUse">
<stop stop-color="#F86161"/>
<stop offset="1" stop-color="#FFB23F"/>
</linearGradient>
<linearGradient id="paint1_linear_0_1" x1="59.7445" y1="85.1005" x2="-5.53829" y2="78.2672" gradientUnits="userSpaceOnUse">
<stop stop-color="#F86161"/>
<stop offset="1" stop-color="#FFB23F"/>
</linearGradient>
</defs>
</svg>
