<svg width="64" height="112" viewBox="0 0 64 112" fill="none" xmlns="http://www.w3.org/2000/svg">
<path id="Vector" d="M63.6445 28.6396C63.4709 28.5817 63.2973 28.5238 63.1237 28.4659C62.6607 28.041 62.0434 27.8092 61.4454 27.9058C59.4005 27.2106 57.3749 26.4188 55.6387 25.1636C53.6324 23.7346 52.2628 21.8228 50.623 20.1041C55.5615 16.2805 57.3363 9.48297 56.4875 3.47721C56.4104 2.9365 55.8509 2.53095 55.3879 2.37647C52.7258 1.48815 49.9864 0.79299 47.2856 0.0591681C46.2632 -0.230499 45.1444 0.580561 45.1637 1.68129C45.2408 4.17243 45.0093 6.56698 44.3149 8.96156C43.8326 10.6223 43.003 12.1286 42.405 13.7121C38.4696 11.5107 35.3637 8.42084 33.126 4.36551C32.6051 3.39995 31.4091 3.22618 30.4831 3.67034C27.1843 5.27316 25.6796 8.82644 26.0076 12.399C26.3548 16.3964 29.0556 19.5634 31.7178 22.3635C27.7438 24.1594 23.7698 25.9361 19.7766 27.732C18.5419 28.292 18.6769 29.9142 19.3907 30.7639C20.2974 31.8453 21.262 32.6949 22.3037 33.3515C11.4042 46.8113 0.23467 61.6036 0.00317621 79.6788C-0.189735 93.9304 8.41411 108.935 23.2876 111.639C36.3091 114.014 48.5975 104.339 53.0344 92.5594C60.0757 73.9435 49.5813 53.9758 55.4265 35.2054C58.5324 35.4178 61.7733 33.9694 63.5095 30.7831C63.741 30.3582 63.7603 29.9527 63.7024 29.5665C64.1268 29.3734 64.0882 28.7748 63.6445 28.6396ZM33.8398 107.004C15.7062 112.991 3.05115 94.1043 3.89996 78.0761C4.76806 61.2368 15.8798 47.3521 26.0462 34.8385C30.1166 35.6302 34.5343 34.1625 38.296 31.7486C37.7945 36.924 38.7397 42.0222 41.0932 46.8306C41.7877 48.2596 43.6397 47.8927 44.4306 46.8306C47.5172 42.5822 49.4077 37.7738 50.0443 32.6757C50.5652 33.2357 51.1632 33.6798 51.7998 34.066C45.1637 56.7372 63.8568 97.1168 33.8398 107.004ZM55.9666 31.4204C55.5037 30.8604 54.6934 30.6286 53.9218 30.7831C53.0537 30.281 52.2628 29.4892 51.7612 28.3692C51.414 27.5774 50.7581 27.3264 50.1407 27.4036C49.5427 25.5112 46.3597 25.6657 46.4176 27.9444C46.5333 32.8881 45.4144 37.4454 43.1381 41.6359C41.7491 37.3295 41.6334 32.8108 42.8101 28.3113C42.9066 27.9637 42.8873 27.6548 42.8101 27.3844C42.7716 25.9554 40.881 24.6808 39.4921 25.9746C35.4216 29.8176 29.1521 33.1197 24.2521 29.9527C28.1875 28.1761 32.1421 26.3995 36.0775 24.6422C37.8523 23.8504 37.0228 21.649 35.4795 21.2242C35.4216 20.8766 35.2866 20.5483 34.9972 20.2393C32.4701 17.5744 27.4544 11.5493 30.8882 8.1312C33.7819 12.5728 37.7945 16.0488 42.6944 18.2117C44.6235 19.0613 46.3211 16.7632 45.3565 15.4501C47.6136 12.3603 48.366 7.82221 48.4817 3.90206C50.1601 4.36553 51.8191 4.82898 53.5167 5.2152C54.1533 10.5644 51.9734 14.8901 48.5782 18.8875C48.2502 19.0034 47.9802 19.2737 47.9995 19.6985V19.7179C47.903 20.0268 47.9609 20.3552 48.1152 20.6062C48.9447 25.4726 54.4427 29.1224 59.4969 29.7983C58.5131 30.9377 57.2399 31.4783 55.9666 31.4204Z" fill="url(#paint0_linear_0_840)"/>
<defs>
<linearGradient id="paint0_linear_0_840" x1="64" y1="112" x2="-6.44694" y2="107.786" gradientUnits="userSpaceOnUse">
<stop stop-color="#F86161"/>
<stop offset="1" stop-color="#FFB23F"/>
</linearGradient>
</defs>
</svg>
