<svg width="152" height="94" viewBox="0 0 152 94" fill="none" xmlns="http://www.w3.org/2000/svg">
<path id="Vector" opacity="0.5" d="M149.134 49.1849C147.022 51.0029 144.058 51.4864 141.462 50.384C139.777 49.6684 139.389 48.3339 138.072 47.3476C136.406 46.0905 135.902 46.5546 133.81 47.1735C132.125 47.6764 130.44 48.1599 128.735 48.6627C128.251 48.7981 127.824 48.7401 127.476 48.566C126.817 49.0882 126.12 49.5717 125.345 49.9199C127.65 52.5888 127.747 57.3852 124.802 60.0154C120.773 63.5933 113.683 62.9164 110.758 58.5069C108.239 61.7947 105.566 65.1212 102.641 68.1576C102.951 68.2156 103.28 68.3124 103.571 68.5444C109.208 72.8573 110.177 80.3419 106.031 86.1439C100.626 93.6866 90.5914 94.3635 82.184 93.88C55.5669 92.3521 29.1629 85.6024 5.89716 72.4318C4.67673 71.7355 4.7736 70.4011 5.43225 69.5695C5.35476 69.4728 5.25789 69.3954 5.18041 69.26C-6.96582 44.6207 2.79765 14.3726 28.698 3.60016C49.6197 -5.08357 72.1687 2.61379 84.7217 19.4784C91.3276 14.9915 99.367 13.8698 106.883 16.5194C109.305 12.9028 114.303 10.9688 118.332 13.541C119.243 14.1212 119.94 14.8755 120.502 15.6878C123.543 15.4557 125.422 9.65365 127.108 7.85502C128.502 6.38516 130.304 5.14736 132.435 5.28274C138.847 5.65021 137.646 12.8254 136.832 17.351C138.266 18.318 139.409 19.4977 140.261 20.9289C141.559 20.6001 143.012 20.6775 144.639 21.4124C150.47 24.0233 148.901 30.3282 146.073 34.6604C151.342 37.5228 154.693 44.4079 149.134 49.1849ZM121.955 19.4204C122.245 21.8186 121.587 24.3522 120.056 26.2862C121.819 27.2725 123.214 28.8197 123.95 30.657C124.318 30.4249 124.783 30.3089 125.325 30.4249C130.11 31.4887 133.094 25.9574 136.89 22.8049C136.135 21.6058 135.089 20.6582 133.752 19.9426C132.958 19.5171 132.687 18.6081 132.822 17.7958C133.035 16.5581 133.888 14.6821 133.733 13.425C132.958 6.59792 130.304 9.82769 128.929 11.8197C128.018 13.1542 127.418 14.6628 126.449 15.9585C125.228 17.5638 123.718 18.8982 121.955 19.4204ZM86.8914 22.6116C89.3323 26.4796 91.2888 30.7537 92.6061 35.376C92.6061 35.3954 92.6061 35.4341 92.6061 35.4534C96.5773 35.1053 100.432 35.1246 103.881 35.4921C105.547 29.9801 109.673 24.971 115.949 25.1064C115.969 25.1064 115.988 25.1064 116.007 25.1064C116.143 24.8163 116.337 24.5455 116.627 24.3134C118.177 23.1144 118.526 20.7549 117.828 18.8789C117.402 18.5307 117.15 18.0472 117.092 17.5444C116.879 17.293 116.647 17.0609 116.395 16.8675C114.341 15.3783 111.649 16.442 110.254 18.3373C110.68 19.2077 110.215 20.3294 109.324 20.8129C109.324 20.8902 109.305 20.9483 109.305 21.0257C109.324 23.5205 105.45 23.5979 105.43 21.103C105.43 20.7549 105.45 20.4068 105.488 20.0586C99.2895 17.8926 92.3737 18.7822 86.8914 22.6116ZM100.878 71.2907C100.549 71.0393 100.394 70.7686 100.297 70.4785C95.2407 75.1974 89.4097 78.8914 82.339 80.1292C72.7111 81.8118 61.5722 77.5376 58.1821 67.7321C51.6344 48.9335 70.4639 38.5865 88.7317 35.8982C81.5834 12.0905 56.4968 -2.25992 32.4561 6.24975C7.40819 15.1462 -2.99455 43.8083 8.55114 67.2293C8.93858 68.0029 8.76423 68.7571 8.33805 69.2987C22.9251 77.4796 38.5777 83.0882 54.9858 86.3954C63.4513 88.0973 72.0525 89.2964 80.673 89.8959C83.5401 90.0893 86.4458 90.3214 89.3322 90.0893C97.8753 89.3931 111.668 79.5683 100.878 71.2907ZM120.153 48.0245C120.25 48.0052 120.327 48.0245 120.424 48.0051C120.599 47.541 120.986 47.1542 121.664 47.0188C124.667 46.4773 127.805 44.2145 127.069 40.7526C126.43 37.7549 122.943 36.5944 120.889 38.9926C119.262 40.888 116.511 38.161 118.119 36.285C118.816 35.4727 119.649 34.9312 120.54 34.525C121.335 30.6377 117.325 28.2008 113.741 29.2645C110.525 30.2315 108.724 33.0552 107.755 36.0916C108.995 36.3624 110.157 36.6718 111.223 37.0586C113.547 37.8902 112.617 41.6422 110.273 40.8106C95.4926 35.5501 61.0879 40.2111 61.1073 61.756C61.1073 75.1587 76.0625 78.7367 86.349 74.9847C95.9962 71.4648 102.699 62.781 108.646 54.8902C109.305 54.0006 110.351 53.9039 111.184 54.2327C112.114 53.9812 113.199 54.3101 113.567 55.4898C114.516 58.5069 118.778 59.087 121.277 57.7332C122.633 56.9983 123.659 55.7219 123.291 54.1166C122.943 52.5888 121.78 51.6411 120.25 51.8732C117.77 52.26 117.732 48.3726 120.153 48.0245ZM147.448 45.2589C147.39 43.615 147.332 41.9517 147.274 40.3078C146.615 38.7412 144.058 37.7356 142.566 37.3488C141.114 36.9619 140.668 35.202 141.656 34.1189C143.283 32.9198 144.116 31.3146 144.155 29.3419C145.433 27.1951 144.794 26.1314 142.218 26.1508C141.23 25.822 140.532 25.6866 139.951 25.7059C139.835 25.7253 139.699 25.7447 139.583 25.7447C138.615 25.9187 137.917 26.615 136.716 27.7947C135.321 29.1872 134.14 30.7537 132.59 31.9915C130.556 33.6161 128.522 34.4864 126.139 34.3897C127.96 35.0666 129.568 36.4397 130.381 38.4124C131.156 40.2691 131.195 42.1258 130.73 43.8084C133.578 42.706 137.007 41.5069 139.234 42.5899C140.455 43.1895 140.532 44.814 141.423 45.3555C143.419 45.3169 145.433 45.2782 147.448 45.2589Z" fill="url(#paint0_linear_0_17)"/>
<defs>
<linearGradient id="paint0_linear_0_17" x1="152" y1="94" x2="-11.2338" y2="66.3718" gradientUnits="userSpaceOnUse">
<stop stop-color="#F86161"/>
<stop offset="1" stop-color="#FFB23F"/>
</linearGradient>
</defs>
</svg>
