<svg width="62" height="114" viewBox="0 0 62 114" fill="none" xmlns="http://www.w3.org/2000/svg">
<path id="Vector" d="M61.6233 42.4898C60.3359 36.4744 56.5322 32.4836 51.7142 30.0697C56.2201 19.207 51.7727 5.50204 40.2836 1.08297C29.3602 -3.10249 15.5694 5.40471 19.1975 16.9683C12.4289 16.4816 5.07512 20.0441 1.8176 27.1691C-0.85473 32.9898 -1.01077 41.3607 4.29489 45.8187C5.69932 47.0062 7.22078 47.7459 8.78126 48.1937C10.0297 61.5093 11.2585 74.8054 12.5069 88.121C13.2482 95.9664 11.8242 106.868 16.8568 113.37C17.5785 114.305 19.1975 114.11 19.9583 113.37C26.8829 106.595 30.9402 97.4459 35.3486 88.9387C40.6152 78.7768 45.5698 68.4397 50.2707 58.0052C50.6804 58.0247 51.09 58.0441 51.5386 58.0636C54.0939 58.1999 56.2786 57.499 58.1707 55.747C61.7013 52.4765 62.6181 47.0451 61.6233 42.4898ZM24.2301 17.6691C21.4798 12.6854 24.2496 6.51431 29.5748 4.76225C34.1392 3.26327 39.2888 4.64545 42.9169 7.62394C48.9638 12.5881 50.8559 21.4067 47.6959 28.4734C43.4631 27.1885 38.8011 26.8186 34.4513 27.208C34.0222 27.2469 33.6906 27.4027 33.398 27.5974C33.1249 27.5584 32.8323 27.5584 32.5007 27.6558C32.4812 27.6558 32.4617 27.6752 32.4422 27.6752C31.0182 22.9836 28.0533 19.8883 24.4252 18.2725C24.3666 18.0584 24.3276 17.8637 24.2301 17.6691ZM6.30401 27.9672C11.2976 18.8955 25.4395 18.3699 28.4044 29.3883C25.5565 31.1598 23.4694 33.9242 22.9817 37.5257C22.8062 38.791 22.8452 39.9006 23.0402 40.8935C18.6709 43.2879 13.0141 45.9355 8.27412 43.2296C2.94895 40.2316 3.82674 32.4642 6.30401 27.9672ZM37.5138 74.8249C37.0261 73.579 36.5774 72.3331 36.1873 71.0677C37.8648 69.9581 39.4839 68.7706 41.0834 67.5052C39.913 69.9581 38.7036 72.3915 37.5138 74.8249ZM29.7698 91.3526C29.4967 90.6323 29.2237 89.912 28.9701 89.1723C29.8283 88.6661 30.6671 88.16 31.4864 87.6149C30.9597 88.8024 30.3745 90.0678 29.7698 91.3526ZM34.3733 81.2296C34.1587 81.6579 33.7296 82.5923 33.2029 83.7798C31.6034 84.9673 29.9454 86.077 28.2288 87.0893C27.0975 83.7799 26.0832 80.4509 25.2054 77.0831C28.3459 75.7009 31.3693 74.1046 34.2757 72.2942C34.8414 74.0462 35.4656 75.7788 36.2069 77.4725C35.6022 78.7184 34.9975 79.9837 34.3733 81.2296ZM18.3197 47.6876C18.5343 51.1722 18.8659 54.6179 19.295 58.0441C17.676 58.706 15.9595 59.1927 14.204 59.5236C13.8724 55.9027 13.5213 52.2819 13.1897 48.6609C14.9062 48.5636 16.6227 48.2132 18.3197 47.6876ZM19.5877 60.2439C20.3289 65.4806 21.3432 70.6784 22.6306 75.8177C20.4459 76.7132 18.2027 77.5114 15.9205 78.1927C15.901 77.8229 15.8815 77.5503 15.862 77.3557C15.3743 72.1384 14.8867 66.9018 14.399 61.6845C16.1936 61.3536 17.9296 60.8669 19.5877 60.2439ZM30.7256 52.7296C31.2718 53.995 31.5059 55.3771 31.3693 57.0708C31.2913 58.0052 30.8232 58.7839 30.8427 59.7572C30.8622 61.2368 31.2913 62.4437 32.2666 63.3976C32.5787 65.6753 33.0664 67.9141 33.6711 70.1333C30.8037 71.9438 27.7997 73.5401 24.6982 74.9417C23.4303 69.8219 22.3965 64.6435 21.6748 59.4068C25.0493 57.7911 28.1118 55.5718 30.7256 52.7296ZM16.0375 80.4509C18.4758 79.7307 20.8555 78.8935 23.1963 77.9397C24.113 81.3854 25.1469 84.7921 26.3172 88.1794C23.3133 89.8147 20.1728 91.1774 16.8763 92.287C16.4082 87.9069 16.1741 83.41 16.0375 80.4509ZM43.2095 62.8525C40.7713 65.0523 38.216 67.038 35.5436 68.8679C35.1925 67.5052 34.9195 66.1425 34.6854 64.7603C37.7088 65.5001 40.6737 63.0862 42.6438 60.8864C43.5216 59.8935 44.3019 59.2511 45.0821 58.8034C44.4579 60.1661 43.8337 61.5093 43.2095 62.8525ZM21.3822 57.1097C20.9921 53.8587 20.6605 50.5882 20.4849 47.2982C20.4849 47.1814 20.4459 47.0646 20.4069 46.9672C21.9284 46.3638 23.3913 45.6824 24.7958 44.9427C25.7711 46.3249 27 47.6486 28.3069 49.1281C28.7945 49.6927 29.2237 50.2183 29.5943 50.7634C27.2145 53.4109 24.4642 55.5523 21.3822 57.1097ZM21.1091 105.544C19.061 105.778 17.8516 100.541 17.1104 94.5063C20.563 93.3772 23.879 91.9561 27.039 90.2625C27.5071 91.5473 27.9753 92.8516 28.4629 94.1169C25.6931 99.8792 22.6891 105.369 21.1091 105.544ZM57.1564 49.2449C54.7961 50.6466 52.4554 52.0287 50.0952 53.4304C49.3344 53.2941 48.5737 53.1578 47.813 53.0605C45.6868 53.2552 44.4384 53.1773 42.6634 54.4232C41.1809 55.455 37.4162 61.5482 35.5826 58.2193C35.0755 57.3044 37.0261 52.9437 36.3239 51.0944C35.7192 49.498 34.5098 48.4663 33.2614 47.3761C30.9402 45.371 28.4044 44.456 27.4681 41.0492C26.2782 36.6691 29.5162 32.9119 33.632 31.8412C33.8856 31.7828 34.0612 31.6465 34.2562 31.5297C34.3148 31.5297 34.3537 31.5492 34.4123 31.5492C42.9364 30.8095 53.8794 32.5031 56.9223 41.9447C57.566 43.872 58.2097 47.3955 57.1564 49.2449Z" fill="url(#paint0_linear_0_841)"/>
<defs>
<linearGradient id="paint0_linear_0_841" x1="62" y1="114" x2="-6.26839" y2="110.114" gradientUnits="userSpaceOnUse">
<stop stop-color="#F86161"/>
<stop offset="1" stop-color="#FFB23F"/>
</linearGradient>
</defs>
</svg>
